<svg xmlns="http://www.w3.org/2000/svg" width="40" height="38" viewBox="0 0 40 38">
    <g fill="none" fill-rule="evenodd">
        <g stroke="#4D4D4F" stroke-width="2" transform="translate(2 2)">
            <path d="M35.948 25.164l-12.55 6.659A10.077 10.077 0 0 1 18.66 33H5V22.78l.503-.287c2.49-1.425 5.402-2.086 8.222-.92a47.24 47.24 0 0 1 2.239 1.001c2.372 1.12 3.076 1.222 6.867.82l.22-.024.209.072c.5.171.924.507 1.197.952l.062.102.037.115c.182.567.126 1.18-.152 1.707l9.57-4.347a2.24 2.24 0 0 1 2.237.13c.357.23.62.58.753 1.06a1.822 1.822 0 0 1-1.016 2.003z"/>
            <circle cx="19" cy="9" r="10"/>
            <path d="M-1 19h6v16h-6z"/>
            <path stroke-linecap="square" d="M19 5v8M15 9h8"/>
        </g>
        <path d="M-4-5h48v48H-4z"/>
    </g>
</svg>
